<svg width="110" height="109" viewBox="0 0 110 109" fill="none" xmlns="http://www.w3.org/2000/svg">
<path d="M80.3449 73.2806C81.2149 76.4425 81.8049 78.7122 82.1411 80.2789C82.3094 81.0631 82.4111 81.6579 82.4539 82.0936C82.476 82.3192 82.4799 82.4824 82.4754 82.5969C82.3856 82.5377 82.2682 82.4497 82.12 82.3238C81.6658 81.9382 81.0782 81.3376 80.346 80.5891C80.1671 80.4062 79.9795 80.2145 79.7832 80.0149C77.8116 78.0111 75.051 75.3204 71.695 73.4303C68.3304 71.5355 64.3322 70.4262 59.9129 71.6421C55.747 72.7883 52.1811 72.6119 49.0625 71.3489C45.9371 70.0832 43.2126 67.7066 40.7705 64.3695C35.8738 57.6782 32.193 47.2405 28.7127 34.5914C27.8429 31.4301 27.2771 29.1902 26.9822 27.6741C26.8344 26.9143 26.7584 26.355 26.7426 25.961C26.736 25.7942 26.7407 25.6682 26.7517 25.5757C26.9025 25.6592 27.1154 25.8175 27.3994 26.0687C27.92 26.5291 28.5741 27.2038 29.3665 28.0213C29.5731 28.2344 29.7891 28.4572 30.0146 28.6885C32.1708 30.8999 35.115 33.7973 38.6069 35.8432C42.1048 37.8926 46.1997 39.1145 50.6281 37.896C54.8063 36.7465 58.2831 36.8244 61.2599 37.934C64.239 39.0444 66.7732 41.209 69.0268 44.3328C73.5518 50.6051 76.8616 60.6202 80.3449 73.2806Z" fill="#2134E0" stroke="black"/>
<path d="M79.3754 34.587C82.6546 34.5553 84.9998 34.5658 86.6003 34.6418C87.4015 34.6799 88.0025 34.7338 88.4346 34.804C88.6584 34.8403 88.8171 34.8783 88.9267 34.9119C88.8464 34.9836 88.7314 35.0746 88.5717 35.1857C88.0827 35.5261 87.3517 35.9403 86.4407 36.4566C86.2181 36.5827 85.9848 36.7149 85.7416 36.8537C83.2999 38.2466 79.9922 40.2266 77.3062 42.9871C74.6133 45.7546 72.5175 49.3357 72.5618 53.9189C72.6035 58.2395 71.5203 61.6414 69.5011 64.3329C67.4777 67.0302 64.4829 69.0556 60.6319 70.5622C52.9102 73.5831 41.878 74.4698 28.7595 74.5965C25.4808 74.6282 23.1707 74.6018 21.6297 74.4989C20.8573 74.4473 20.2972 74.3776 19.9123 74.292C19.7494 74.2558 19.6288 74.219 19.5422 74.1846C19.6615 74.0602 19.869 73.8949 20.1845 73.6847C20.7628 73.2993 21.5825 72.8397 22.5755 72.2829C22.8345 72.1377 23.1052 71.9859 23.3865 71.8271C26.076 70.3088 29.6306 68.2043 32.502 65.3524C35.3785 62.4955 37.6078 58.8497 37.5634 54.257C37.5215 49.9238 38.4868 46.5827 40.3213 43.9891C42.1573 41.3934 44.8984 39.4977 48.495 38.1187C55.7165 35.3499 66.2452 34.7138 79.3754 34.587Z" fill="#7DE021" stroke="black"/>
</svg>
