<svg xmlns="http://www.w3.org/2000/svg" xmlns:xlink="http://www.w3.org/1999/xlink" width="800" zoomAndPan="magnify" viewBox="0 0 600 599.999999" height="800" preserveAspectRatio="xMidYMid meet" version="1.0"><defs><clipPath id="4b389b9f49"><path d="M 174 22 L 426 22 L 426 570 L 174 570 Z M 174 22 " clip-rule="nonzero"/></clipPath><clipPath id="8137f86825"><path d="M 134.417969 -228.992188 L 830.503906 139.273438 L 465.746094 828.730469 L -230.339844 460.460938 Z M 134.417969 -228.992188 " clip-rule="nonzero"/></clipPath><clipPath id="a1bafd8996"><path d="M 134.417969 -228.992188 L 830.503906 139.273438 L 465.746094 828.730469 L -230.339844 460.460938 Z M 134.417969 -228.992188 " clip-rule="nonzero"/></clipPath><clipPath id="009f1feeda"><path d="M 134.417969 -228.992188 L 830.503906 139.273438 L 465.746094 828.730469 L -230.339844 460.460938 Z M 134.417969 -228.992188 " clip-rule="nonzero"/></clipPath><clipPath id="243a8144ca"><path d="M 133 0 L 466 0 L 466 600 L 133 600 Z M 133 0 " clip-rule="nonzero"/></clipPath><clipPath id="9cb426d9d9"><path d="M 134.417969 -228.992188 L 830.503906 139.273438 L 465.746094 828.730469 L -230.339844 460.460938 Z M 134.417969 -228.992188 " clip-rule="nonzero"/></clipPath><clipPath id="0d75f96eda"><path d="M 134.417969 -228.992188 L 830.503906 139.273438 L 465.746094 828.730469 L -230.339844 460.460938 Z M 134.417969 -228.992188 " clip-rule="nonzero"/></clipPath><clipPath id="53a5f744fb"><path d="M 134.417969 -228.992188 L 830.503906 139.273438 L 465.746094 828.730469 L -230.339844 460.460938 Z M 134.417969 -228.992188 " clip-rule="nonzero"/></clipPath><clipPath id="9b3acb2b17"><path d="M 9 173 L 581 173 L 581 422 L 9 422 Z M 9 173 " clip-rule="nonzero"/></clipPath><clipPath id="2698ee8157"><path d="M 134.417969 -228.992188 L 830.503906 139.273438 L 465.746094 828.730469 L -230.339844 460.460938 Z M 134.417969 -228.992188 " clip-rule="nonzero"/></clipPath><clipPath id="a0b0c74ae7"><path d="M 134.417969 -228.992188 L 830.503906 139.273438 L 465.746094 828.730469 L -230.339844 460.460938 Z M 134.417969 -228.992188 " clip-rule="nonzero"/></clipPath><clipPath id="5095e7a307"><path d="M 134.417969 -228.992188 L 830.503906 139.273438 L 465.746094 828.730469 L -230.339844 460.460938 Z M 134.417969 -228.992188 " clip-rule="nonzero"/></clipPath><clipPath id="a1067d6219"><path d="M 0 132 L 600 132 L 600 463 L 0 463 Z M 0 132 " clip-rule="nonzero"/></clipPath><clipPath id="78a20c4fa4"><path d="M 134.417969 -228.992188 L 830.503906 139.273438 L 465.746094 828.730469 L -230.339844 460.460938 Z M 134.417969 -228.992188 " clip-rule="nonzero"/></clipPath><clipPath id="4858774ccf"><path d="M 134.417969 -228.992188 L 830.503906 139.273438 L 465.746094 828.730469 L -230.339844 460.460938 Z M 134.417969 -228.992188 " clip-rule="nonzero"/></clipPath><clipPath id="5da913041e"><path d="M 134.417969 -228.992188 L 830.503906 139.273438 L 465.746094 828.730469 L -230.339844 460.460938 Z M 134.417969 -228.992188 " clip-rule="nonzero"/></clipPath></defs><g clip-path="url(#4b389b9f49)"><g clip-path="url(#8137f86825)"><g clip-path="url(#a1bafd8996)"><g clip-path="url(#009f1feeda)"><path fill="#2134e0" d="M 397.617188 503.511719 C 392.542969 526.425781 388.679688 542.757812 385.566406 553.792969 C 384.003906 559.316406 382.660156 563.417969 381.472656 566.316406 C 380.855469 567.820312 380.335938 568.863281 379.921875 569.574219 C 379.554688 568.898438 379.105469 567.949219 378.589844 566.65625 C 377.003906 562.695312 375.296875 556.929688 373.167969 549.746094 C 372.648438 547.988281 372.101562 546.148438 371.527344 544.230469 C 365.757812 524.953125 357.292969 498.691406 342.378906 475.5 C 327.429688 452.25 305.839844 431.847656 273.804688 424.746094 C 243.609375 418.046875 221.632812 404.992188 206.125 386.5625 C 190.582031 368.09375 181.296875 343.941406 177.011719 314.65625 C 168.414062 255.9375 180.050781 177.59375 200.359375 85.933594 C 205.433594 63.027344 209.347656 46.964844 212.554688 36.386719 C 214.164062 31.085938 215.554688 27.292969 216.773438 24.75 C 217.289062 23.671875 217.738281 22.890625 218.117188 22.34375 C 218.792969 23.375 219.609375 25.089844 220.566406 27.628906 C 222.320312 32.285156 224.203125 38.742188 226.480469 46.566406 C 227.074219 48.605469 227.695312 50.738281 228.351562 52.953125 C 234.59375 74.160156 243.527344 102.34375 258.78125 126.976562 C 274.054688 151.648438 295.878906 173.089844 327.980469 180.207031 C 358.265625 186.925781 380.007812 199.054688 395.132812 216.042969 C 410.269531 233.039062 419.0625 255.214844 422.867188 282.519531 C 430.511719 337.339844 417.941406 411.769531 397.617188 503.511719 Z M 397.617188 503.511719 " fill-opacity="1" fill-rule="nonzero"/></g></g></g></g><g clip-path="url(#243a8144ca)"><g clip-path="url(#9cb426d9d9)"><g clip-path="url(#0d75f96eda)"><g clip-path="url(#53a5f744fb)"><path stroke-linecap="butt" transform="matrix(6.32804, 3.347879, -3.346423, 6.325288, 134.420003, -228.993208)" fill="none" stroke-linejoin="miter" d="M 80.344752 73.280523 C 81.215027 76.442512 81.804866 78.712341 82.141307 80.278877 C 82.309187 81.063252 82.411196 81.657699 82.453908 82.093322 C 82.475942 82.319421 82.479925 82.482202 82.475241 82.597077 C 82.385762 82.537599 82.268293 82.449706 82.120171 82.323692 C 81.665624 81.93807 81.078241 81.337443 80.346147 80.589236 C 80.167178 80.406059 79.979475 80.214536 79.783293 80.01515 C 77.811716 78.011013 75.051124 75.320291 71.694815 73.430276 C 68.330339 71.53532 64.33197 70.426077 59.912762 71.642371 C 55.746999 72.78813 52.180841 72.611755 49.062266 71.348718 C 45.936799 70.083153 43.212711 67.706592 40.770683 64.369268 C 35.873553 57.67807 32.192792 47.240441 28.712885 34.591238 C 27.84312 31.430214 27.277157 29.19036 26.982145 27.67415 C 26.834597 26.914215 26.758533 26.354823 26.7429 25.961065 C 26.736138 25.794197 26.74057 25.668339 26.75163 25.576027 C 26.90243 25.659247 27.115247 25.817715 27.399265 26.068804 C 27.919969 26.529335 28.574219 27.203878 29.366488 28.021517 C 29.572992 28.234584 29.788996 28.457445 30.014698 28.688141 C 32.170684 30.899748 35.114691 33.797231 38.607114 35.843083 C 42.1045 37.892484 46.19968 39.114758 50.628107 37.896054 C 54.806239 36.746836 58.282986 36.824174 61.260141 37.934182 C 64.239254 39.04439 66.773459 41.208966 69.026798 44.333058 C 73.551596 50.605 76.861416 60.620167 80.344752 73.280523 Z M 80.344752 73.280523 " stroke="#000000" stroke-width="1" stroke-opacity="1" stroke-miterlimit="4"/></g></g></g></g><g clip-path="url(#9b3acb2b17)"><g clip-path="url(#2698ee8157)"><g clip-path="url(#a0b0c74ae7)"><g clip-path="url(#5095e7a307)"><path fill="#7de021" d="M 520.96875 255.519531 C 541.824219 266.296875 556.628906 274.214844 566.503906 280.054688 C 571.445312 282.976562 575.070312 285.328125 577.570312 287.21875 C 578.863281 288.199219 579.742188 288.972656 580.320312 289.550781 C 579.574219 289.734375 578.542969 289.925781 577.160156 290.09375 C 572.925781 290.609375 566.914062 290.78125 559.421875 291 C 557.589844 291.050781 555.671875 291.105469 553.667969 291.167969 C 533.554688 291.804688 506 293.257812 479.765625 301.722656 C 453.460938 310.214844 428.214844 325.847656 413.160156 354.988281 C 398.964844 382.457031 380.726562 400.347656 358.941406 410.613281 C 337.109375 420.898438 311.382812 423.683594 281.96875 420.320312 C 222.996094 413.578125 150.21875 382.253906 66.78125 339.132812 C 45.925781 328.359375 31.394531 320.457031 21.988281 314.648438 C 17.273438 311.734375 13.960938 309.417969 11.8125 307.589844 C 10.902344 306.816406 10.261719 306.179688 9.832031 305.671875 C 11.003906 305.285156 12.867188 304.933594 15.566406 304.660156 C 20.515625 304.15625 27.242188 303.996094 35.390625 303.796875 C 37.515625 303.746094 39.734375 303.691406 42.046875 303.628906 C 64.148438 303.03125 93.683594 301.617188 121.398438 293.191406 C 149.160156 284.75 175.46875 269.15625 190.554688 239.957031 C 204.792969 212.40625 222.082031 194.503906 242.367188 184.242188 C 262.671875 173.96875 286.363281 171.15625 313.738281 174.472656 C 368.699219 181.136719 437.457031 212.363281 520.96875 255.519531 Z M 520.96875 255.519531 " fill-opacity="1" fill-rule="nonzero"/></g></g></g></g><g clip-path="url(#a1067d6219)"><g clip-path="url(#78a20c4fa4)"><g clip-path="url(#4858774ccf)"><g clip-path="url(#5da913041e)"><path stroke-linecap="butt" transform="matrix(6.32804, 3.347879, -3.346423, 6.325288, 134.420003, -228.993208)" fill="none" stroke-linejoin="miter" d="M 79.375543 34.587043 C 82.654522 34.555379 84.999643 34.565938 86.600359 34.641956 C 87.401326 34.679952 88.002506 34.733528 88.434675 34.803687 C 88.658361 34.840301 88.8174 34.878401 88.926544 34.912032 C 88.846418 34.983467 88.731594 35.074502 88.571832 35.185616 C 88.082703 35.526023 87.351674 35.940119 86.440916 36.456752 C 86.218036 36.582748 85.9848 36.714842 85.741464 36.853517 C 83.299705 38.246566 79.992497 40.226754 77.306322 42.98676 C 74.613251 45.754739 72.517319 49.335563 72.562051 53.918891 C 72.603679 58.239546 71.520473 61.641299 69.501264 64.332986 C 67.477544 67.030148 64.483062 69.055404 60.631666 70.562169 C 52.910009 73.583216 41.878178 74.469977 28.759569 74.596205 C 25.480845 74.628352 23.170506 74.601854 21.629707 74.499062 C 20.857223 74.447226 20.296924 74.377571 19.912245 74.292157 C 19.749347 74.256099 19.628659 74.219315 19.542435 74.184669 C 19.661863 74.060319 19.868955 73.895128 20.184361 73.684959 C 20.762516 73.299285 21.582571 72.839922 22.575631 72.282815 C 22.834684 72.137674 23.105057 71.985924 23.386494 71.827082 C 26.076295 70.308925 29.630579 68.204139 32.502096 65.352209 C 35.378381 62.495286 37.60805 58.849853 37.563349 54.257245 C 37.521667 49.92365 38.48691 46.58248 40.321172 43.9893 C 42.157079 41.393397 44.898498 39.497762 48.495072 38.118458 C 55.716307 35.349926 66.245474 34.713778 79.375543 34.587043 Z M 79.375543 34.587043 " stroke="#000000" stroke-width="1" stroke-opacity="1" stroke-miterlimit="4"/></g></g></g></g></svg>